<svg width="21" height="22" viewBox="0 0 21 22" fill="none" xmlns="http://www.w3.org/2000/svg">
<path d="M10.3055 5.76605C10.3055 8.59166 8.03279 10.8823 5.22934 10.8823H0.153175V5.76605C0.153175 2.9404 2.42584 0.649761 5.22934 0.649761C8.03279 0.649761 10.3055 2.9404 10.3055 5.76605Z" fill="#10B981"/>
<path d="M10.3055 15.9986C10.3055 13.1729 12.5781 10.8823 15.3816 10.8823H20.4578V15.9986C20.4578 18.8242 18.1851 21.1149 15.3816 21.1149C12.5781 21.1149 10.3055 18.8242 10.3055 15.9986Z" fill="#10B981"/>
<path d="M0.153175 15.9986C0.153175 18.8242 2.42584 21.1149 5.22934 21.1149H10.3055V15.9986C10.3055 13.1729 8.03279 10.8823 5.22934 10.8823C2.42584 10.8823 0.153175 13.1729 0.153175 15.9986Z" fill="#10B981"/>
<path d="M20.4578 5.76605C20.4578 2.9404 18.1851 0.649761 15.3816 0.649761H10.3055V5.76605C10.3055 8.59166 12.5781 10.8823 15.3816 10.8823C18.1851 10.8823 20.4578 8.59166 20.4578 5.76605Z" fill="#10B981"/>
</svg>
